<?xml version="1.0" standalone="no"?>
<!DOCTYPE svg PUBLIC "-//W3C//DTD SVG 20010904//EN"
 "http://www.w3.org/TR/2001/REC-SVG-20010904/DTD/svg10.dtd">
<svg version="1.0" xmlns="http://www.w3.org/2000/svg"
 width="1149.000000pt" height="845.000000pt" viewBox="0 0 1149.000000 845.000000"
 preserveAspectRatio="xMidYMid meet">

<g transform="translate(0.000000,845.000000) scale(0.100000,-0.100000)"
fill="#000000" stroke="none">
<path d="M5550 7664 c-362 -70 -642 -329 -731 -673 -16 -60 -43 -360 -49 -539
0 -1 -138 -2 -306 -2 -168 1 -307 0 -309 -2 -1 -2 -8 -91 -14 -198 -7 -107
-14 -217 -16 -245 -3 -27 -12 -162 -20 -300 -9 -137 -24 -378 -35 -535 -10
-157 -30 -469 -45 -695 -32 -504 -28 -477 -63 -469 -251 55 -393 117 -476 207
-49 53 -66 93 -66 154 0 105 104 240 269 350 113 75 117 79 49 49 -458 -202
-707 -480 -658 -735 17 -91 53 -154 132 -234 191 -193 490 -309 928 -361 459
-55 1247 -57 1899 -6 63 5 117 8 119 6 6 -7 -149 -55 -258 -80 -273 -63 -571
-100 -1025 -127 -254 -15 -986 -15 -1318 1 -147 7 -270 10 -273 7 -11 -11 362
-124 549 -167 l98 -23 -6 -66 c-5 -61 -25 -424 -25 -463 0 -17 92 -18 1800
-18 1708 0 1800 1 1800 18 0 16 -34 552 -80 1276 -11 170 -19 311 -17 312 2 2
88 24 193 49 104 25 206 50 227 56 l38 10 -5 67 c-8 100 -15 193 -22 325 -7
125 -8 126 -59 107 -79 -30 -570 -165 -714 -196 -294 -63 -757 -135 -1186
-184 -223 -26 -513 -50 -580 -49 l-50 1 55 10 c30 5 165 27 300 49 544 90
1162 226 1451 319 212 69 293 107 463 218 432 283 571 590 390 863 -77 117
-219 234 -399 328 -80 42 -80 42 -40 9 151 -124 211 -233 203 -361 -5 -88 -44
-161 -131 -251 -66 -66 -203 -174 -211 -165 -3 3 -17 200 -51 729 -3 41 -7
102 -10 135 -3 33 -8 107 -11 165 -4 58 -7 106 -8 107 -1 1 -140 3 -309 4
-169 0 -307 2 -307 2 0 1 -7 106 -15 232 -16 255 -32 336 -89 461 -88 189
-231 335 -421 429 -151 75 -201 86 -380 90 -82 2 -161 1 -175 -1z m331 -268
c182 -58 320 -173 404 -337 58 -114 69 -184 87 -549 l2 -55 -674 0 -674 0 2
55 c17 353 29 435 79 534 92 183 238 303 435 356 59 16 94 19 183 16 61 -3
131 -11 156 -20z m-1125 -1198 c-3 -18 -6 -75 -7 -126 -3 -106 10 -133 74
-165 47 -24 98 -14 137 25 32 32 36 49 46 193 l6 99 39 -41 c144 -155 33 -405
-182 -406 -215 -1 -321 271 -163 419 45 43 58 43 50 2z m1643 -138 c1 -80 24
-127 75 -153 45 -24 93 -17 135 19 41 34 48 70 41 194 -4 58 -5 107 -4 109 10
12 76 -56 98 -101 81 -163 -35 -353 -215 -350 -140 2 -242 104 -242 242 0 65
17 110 64 166 l34 41 7 -51 c3 -28 6 -80 7 -116z"/>
<path d="M3990 1465 l0 -455 75 0 75 0 0 455 0 455 -75 0 -75 0 0 -455z"/>
<path d="M7050 1465 l0 -455 44 0 44 0 4 218 c3 238 7 254 67 305 94 78 243
52 289 -52 13 -28 17 -82 20 -253 l4 -218 44 0 45 0 -3 243 c-3 236 -4 244
-28 291 -34 65 -90 104 -171 118 -91 16 -161 -6 -223 -68 l-46 -46 0 186 0
186 -45 0 -45 0 0 -455z"/>
<path d="M4340 1840 l0 -70 85 0 85 0 0 70 0 70 -85 0 -85 0 0 -70z"/>
<path d="M2473 1884 c-289 -59 -441 -399 -297 -665 139 -255 514 -305 728 -96
218 214 156 600 -117 727 -106 50 -192 59 -314 34z m234 -160 c177 -84 223
-342 89 -491 -80 -89 -182 -119 -295 -88 -180 51 -271 265 -186 441 13 27 32
58 42 69 89 100 228 127 350 69z"/>
<path d="M6475 1889 c-146 -20 -235 -109 -235 -235 1 -142 70 -200 310 -259
154 -38 200 -72 207 -152 4 -39 0 -55 -19 -83 -37 -55 -88 -75 -188 -74 -95 1
-166 26 -241 85 l-40 32 -30 -29 c-16 -15 -29 -33 -29 -39 0 -6 20 -26 45 -44
139 -100 346 -127 475 -61 49 25 104 89 118 139 26 84 5 178 -49 228 -35 32
-124 70 -220 93 -184 45 -230 77 -237 163 -4 46 -1 57 23 85 35 42 69 59 132
67 66 9 164 -16 230 -60 l51 -34 28 40 c23 34 25 42 13 50 -112 75 -227 104
-344 88z"/>
<path d="M3482 1669 c-18 -5 -53 -29 -77 -53 l-45 -43 0 49 0 48 -75 0 -75 0
0 -330 0 -330 75 0 75 0 0 208 c0 177 3 212 18 242 25 50 74 80 134 80 41 0
54 -5 84 -32 48 -44 53 -78 54 -305 l0 -193 75 0 75 0 0 233 c0 271 -8 315
-69 376 -55 55 -159 76 -249 50z"/>
<path d="M4961 1660 c-24 -11 -59 -36 -77 -56 l-34 -35 0 50 0 51 -75 0 -75 0
0 -330 0 -330 74 0 75 0 3 218 c3 190 5 221 21 245 40 62 132 86 198 51 59
-30 69 -73 69 -306 l0 -208 76 0 75 0 -3 258 c-3 253 -3 258 -28 302 -14 24
-44 57 -67 74 -57 40 -165 47 -232 16z"/>
<path d="M5657 1663 c-91 -31 -179 -131 -207 -236 -17 -63 -8 -182 18 -240 29
-64 95 -132 161 -164 49 -24 68 -27 151 -28 83 0 102 3 150 27 30 15 70 42 88
61 l33 34 -46 37 -45 37 -42 -30 c-56 -40 -125 -53 -190 -36 -68 17 -110 60
-132 132 l-7 23 243 2 243 3 -1 70 c-5 233 -203 379 -417 308z m169 -122 c41
-19 76 -58 87 -96 3 -11 8 -30 12 -42 l6 -23 -170 0 c-94 0 -171 4 -171 8 0
26 34 103 55 122 25 23 87 49 120 49 11 0 38 -8 61 -18z"/>
<path d="M4350 1340 l0 -330 75 0 75 0 0 330 0 330 -75 0 -75 0 0 -330z"/>
<path d="M8029 1657 c-154 -44 -249 -169 -249 -327 0 -228 204 -385 423 -326
112 30 208 127 238 241 18 64 6 171 -25 237 -65 136 -241 216 -387 175z m188
-102 c118 -59 168 -214 109 -340 -78 -169 -312 -181 -410 -21 -58 93 -46 230
28 314 65 75 178 94 273 47z"/>
<path d="M8900 1656 c-60 -16 -113 -49 -150 -94 l-30 -37 0 63 0 62 -45 0 -45
0 0 -420 0 -420 45 0 45 0 0 156 0 157 49 -46 c66 -62 110 -79 201 -80 122 -1
216 57 270 166 100 203 -1 449 -202 496 -60 13 -80 13 -138 -3z m124 -88 c96
-29 163 -143 154 -262 -13 -162 -142 -257 -292 -215 -55 15 -131 89 -150 146
-35 103 -15 194 60 270 69 70 137 88 228 61z"/>
<path d="M3477 793 c-4 -3 -7 -64 -7 -135 0 -107 2 -128 15 -128 12 0 15 13
15 60 l0 60 80 0 80 0 0 -60 c0 -47 3 -60 15 -60 13 0 15 19 13 132 -2 94 -7
133 -15 136 -10 3 -13 -13 -13 -57 l0 -61 -80 0 -80 0 0 60 c0 55 -6 70 -23
53z"/>
<path d="M3880 675 c-33 -70 -60 -131 -60 -136 0 -22 28 -6 43 26 l17 35 70 0
71 0 15 -35 c8 -19 21 -35 29 -35 8 0 15 3 15 8 -2 20 -118 256 -128 260 -7 2
-36 -47 -72 -123z m102 16 l26 -60 -22 -3 c-11 -2 -37 -1 -57 0 l-37 4 26 59
c14 32 28 59 31 59 4 0 18 -27 33 -59z"/>
<path d="M4218 794 c-5 -4 -8 -65 -8 -136 0 -107 2 -128 15 -128 11 0 15 12
15 45 l0 45 40 0 c108 0 166 78 108 145 -19 22 -34 27 -93 32 -38 3 -73 2 -77
-3z m127 -34 c30 -11 39 -31 31 -63 -7 -29 -44 -47 -96 -47 l-40 0 0 60 0 60
39 0 c22 0 51 -4 66 -10z"/>
<path d="M4540 666 c0 -114 2 -136 15 -136 11 0 15 12 15 45 l0 45 43 0 c84 0
139 51 123 113 -10 40 -48 59 -126 65 l-70 5 0 -137z m133 93 c44 -24 48 -49
12 -84 -18 -19 -35 -25 -70 -25 l-45 0 0 60 0 60 41 0 c22 0 50 -5 62 -11z"/>
<path d="M4840 795 c0 -3 25 -41 55 -84 49 -70 55 -84 55 -130 0 -39 4 -51 15
-51 11 0 15 13 15 53 0 47 6 61 55 135 43 64 51 82 38 82 -11 0 -36 -27 -63
-66 l-45 -66 -20 25 c-11 14 -32 44 -47 66 -15 23 -35 41 -43 41 -8 0 -15 -2
-15 -5z"/>
<path d="M5433 789 c-12 -6 -27 -25 -34 -41 -17 -43 12 -78 81 -98 60 -17 81
-40 64 -67 -20 -33 -58 -38 -103 -16 -25 12 -44 17 -47 11 -12 -20 26 -41 81
-46 48 -4 59 -1 80 18 50 47 28 103 -50 125 -72 21 -91 40 -72 69 17 25 58 32
98 15 35 -14 49 -5 27 17 -20 20 -96 28 -125 13z"/>
<path d="M5720 665 c0 -113 2 -135 15 -135 12 0 15 13 15 60 l0 60 75 0 75 0
0 -60 c0 -47 3 -60 15 -60 13 0 15 22 15 135 0 113 -2 135 -15 135 -12 0 -15
-13 -15 -60 l0 -60 -75 0 -75 0 0 60 c0 47 -3 60 -15 60 -13 0 -15 -22 -15
-135z"/>
<path d="M6141 782 c-85 -46 -93 -170 -16 -230 38 -30 121 -31 159 -1 133 104
5 310 -143 231z m135 -46 c38 -38 44 -77 19 -126 -53 -103 -205 -51 -191 65 6
53 52 95 102 95 28 0 44 -8 70 -34z"/>
<path d="M6480 666 c0 -114 2 -136 15 -136 11 0 15 12 15 44 l0 43 56 6 c70 7
101 27 109 71 13 67 -20 94 -126 103 l-69 6 0 -137z m144 83 c32 -26 33 -43 1
-74 -18 -19 -35 -25 -70 -25 l-45 0 0 60 0 60 44 0 c29 0 52 -7 70 -21z"/>
<path d="M6810 666 c0 -114 2 -136 15 -136 11 0 15 12 15 45 0 44 1 45 33 45
64 0 107 19 124 55 14 28 14 38 3 65 -17 40 -37 50 -121 57 l-69 6 0 -137z
m135 92 c14 -6 25 -15 25 -19 0 -4 3 -14 6 -23 3 -9 -5 -26 -20 -41 -19 -19
-35 -25 -71 -25 l-45 0 0 60 0 60 40 0 c21 0 51 -5 65 -12z"/>
<path d="M7140 665 c0 -113 2 -135 15 -135 13 0 15 22 15 135 0 113 -2 135
-15 135 -13 0 -15 -22 -15 -135z"/>
<path d="M7320 665 c0 -112 3 -135 15 -135 11 0 15 21 17 106 l3 106 83 -106
c46 -58 90 -106 98 -106 12 0 14 22 12 132 -2 92 -7 133 -15 135 -9 3 -13 -24
-15 -104 l-3 -108 -83 108 c-46 59 -90 107 -98 107 -11 0 -14 -24 -14 -135z"/>
<path d="M7754 781 c-47 -29 -64 -59 -64 -114 0 -96 47 -142 141 -135 77 6 99
25 99 90 l0 48 -55 0 c-62 0 -75 -17 -17 -22 32 -3 37 -7 40 -31 4 -36 -10
-53 -53 -61 -43 -8 -97 15 -115 49 -20 38 -7 115 25 142 31 27 89 31 122 8 17
-12 23 -12 32 -1 9 11 4 17 -23 30 -45 21 -94 20 -132 -3z"/>
</g>
</svg>
